<svg width="220" height="30" viewBox="0 0 220 30" fill="none" xmlns="http://www.w3.org/2000/svg">
<path d="M54.1007 7.33594V20.5283H62.3248V23.319H51.0986V7.33594H54.1007Z" fill="black"/>
<path d="M76.3209 11.2473C75.2427 10.2113 73.657 9.6405 72.2617 9.6405C68.8367 9.6405 66.7649 12.2409 66.7649 15.539C66.7649 18.1606 68.2871 20.8879 72.2617 20.8879C73.509 20.8879 74.6084 20.613 75.8769 19.6194V16.7652H71.7966V14.0803H78.6465V20.8244C77.0608 22.6215 75.0947 23.6997 72.2828 23.6997C66.2786 23.6997 63.8262 19.7462 63.8262 15.539C63.8262 11.0359 66.638 6.89209 72.2828 6.89209C74.4393 6.89209 76.5746 7.71661 78.2236 9.34452L76.3209 11.2473Z" fill="black"/>
<path d="M95.0311 23.3192H91.437L86.7859 17.9703H83.8895V23.3192H80.8662V7.31494C83.4032 7.31494 85.9402 7.33608 88.4772 7.33608C92.2404 7.35723 94.2277 9.87308 94.2277 12.6426C94.2277 14.8414 93.2129 17.0401 90.1897 17.6744L95.0311 23.1289V23.3192ZM83.8895 10.1479V15.2642H88.4772C90.4011 15.2642 91.2256 13.9957 91.2256 12.7061C91.2256 11.4164 90.38 10.1479 88.4772 10.1479H83.8895Z" fill="#ED7124"/>
<path d="M108.181 23.319H96.2148C96.2148 17.9913 96.2148 12.6636 96.2148 7.33594H108.181V10.2535H99.217V13.9533H107.864V16.7651H99.217V20.3803H108.181V23.319Z" fill="#ED7124"/>
<path d="M120.866 11.2051C120.317 10.296 118.815 9.42918 117.082 9.42918C114.841 9.42918 113.763 10.3594 113.763 11.5433C113.763 12.9387 115.412 13.3192 117.314 13.5518C120.655 13.9535 123.763 14.8203 123.763 18.6469C123.763 22.1987 120.613 23.7421 117.04 23.7421C113.784 23.7421 111.268 22.7273 110.084 19.8097L112.6 18.499C113.298 20.2537 115.158 21.0359 117.103 21.0359C119.006 21.0359 120.782 20.3806 120.782 18.6469C120.782 17.1459 119.196 16.5328 117.082 16.3002C113.826 15.9197 110.803 15.0529 110.803 11.4588C110.803 8.16068 114.037 6.82876 116.997 6.80762C119.492 6.80762 122.071 7.50529 123.276 9.97886L120.866 11.2051Z" fill="#ED7124"/>
<path d="M141.796 15.4334C141.754 19.556 139.217 23.6998 133.593 23.6998C127.97 23.6998 125.369 19.6617 125.369 15.4546C125.369 11.2474 128.054 7.01904 133.593 7.01904C139.111 7.01904 141.838 11.2474 141.796 15.4334ZM128.35 15.4968C128.414 18.1184 129.83 20.9303 133.593 20.9303C137.356 20.9303 138.773 18.0973 138.815 15.4757C138.858 12.7907 137.356 9.76746 133.593 9.76746C129.83 9.76746 128.287 12.8119 128.35 15.4968Z" fill="#ED7124"/>
<path d="M158.034 7.35742V16.5118C158.034 21.2475 155.137 23.6576 151.12 23.6576C147.294 23.6576 144.017 21.3321 144.017 16.5118V7.35742H146.998V16.5118C146.998 19.387 148.647 20.9092 151.12 20.9092C153.615 20.9092 155.031 19.239 155.031 16.5118V7.35742H158.034Z" fill="#ED7124"/>
<path d="M175.158 23.3192H171.564L166.913 17.9703H164.016V23.3192H160.993V7.31494C163.53 7.31494 166.067 7.33608 168.604 7.33608C172.367 7.35723 174.355 9.87308 174.355 12.6426C174.355 14.8414 173.34 17.0401 170.317 17.6744L175.158 23.1289V23.3192ZM164.016 10.1479V15.2642H168.604C170.528 15.2642 171.353 13.9957 171.353 12.7061C171.353 11.4164 170.507 10.1479 168.604 10.1479H164.016Z" fill="#ED7124"/>
<path d="M190.486 21.3109C188.837 22.9389 186.723 23.6788 184.418 23.6788C178.478 23.6788 175.962 19.5985 175.941 15.4336C175.919 11.2475 178.626 6.99805 184.418 6.99805C186.596 6.99805 188.647 7.82257 190.296 9.45048L188.287 11.3955C187.23 10.3596 185.814 9.89445 184.418 9.89445C180.549 9.89445 178.9 12.7697 178.922 15.4336C178.943 18.0763 180.465 20.8458 184.418 20.8458C185.814 20.8458 187.378 20.275 188.435 19.2179L190.486 21.3109Z" fill="#ED7124"/>
<path d="M204.079 23.319H192.113C192.113 17.9913 192.113 12.6636 192.113 7.33594H204.079V10.2535H195.115V13.9533H203.762V16.7651H195.115V20.3803H204.079V23.319Z" fill="#ED7124"/>
<path d="M216.765 11.2051C216.215 10.296 214.714 9.42918 212.98 9.42918C210.739 9.42918 209.661 10.3594 209.661 11.5433C209.661 12.9387 211.31 13.3192 213.213 13.5518C216.553 13.9535 219.661 14.8203 219.661 18.6469C219.661 22.1987 216.511 23.7421 212.938 23.7421C209.682 23.7421 207.166 22.7273 205.982 19.8097L208.498 18.499C209.196 20.2537 211.056 21.0359 213.001 21.0359C214.904 21.0359 216.68 20.3806 216.68 18.6469C216.68 17.1459 215.094 16.5328 212.98 16.3002C209.725 15.9197 206.701 15.0529 206.701 11.4588C206.701 8.16068 209.936 6.82876 212.896 6.80762C215.39 6.80762 217.97 7.50529 219.175 9.97886L216.765 11.2051Z" fill="#ED7124"/>
<path d="M21.0782 15.6025L27.4842 9.19659L37.5053 19.2177L41.3954 15.3488L31.3531 5.30653L31.3742 5.28539L26.6596 0.570801L26.6385 0.591942L22.7696 4.48201L16.3636 10.8879L12.4102 14.8203L17.1247 19.5349L27.1459 29.556L31.0994 25.6237L35.8985 20.8245L35.8774 20.8034L31.2474 16.1733L27.5053 12.4313L24.3129 15.6237L28.0761 19.3657L26.4482 20.9725L21.0782 15.6025Z" fill="#ED7124"/>
<path d="M25.6025 0H14.9471L0 14.8626L15.1586 29.9577L25.9408 30L10.9937 14.8626L25.6025 0Z" fill="black"/>
</svg>
